<svg width="176" height="183" viewBox="0 0 176 183" fill="none" xmlns="http://www.w3.org/2000/svg">
<rect y="7" width="176" height="176" rx="30" fill="black"/>
<rect y="7" width="176" height="176" rx="30" fill="white"/>
<path d="M47.08 112.7C47.08 99.68 55.9 92.26 71.3 91.14L92.58 89.6V86.8C92.58 79.66 87.82 75.32 79.28 75.32C72.7 75.32 66.54 77.42 60.1 81.76L52.4 68.74C60.8 62.58 70.46 59.08 81.52 59.08C98.88 59.08 110.36 69.16 110.36 84.56V112.98C110.36 115.64 111.76 117.18 114.42 117.18H118.2V133H109.66C102.66 133 97.34 129.78 94.82 124.46C89.78 130.9 81.8 134.82 72.14 134.82C57.72 134.82 47.08 125.44 47.08 112.7ZM64.58 112.56C64.58 117.6 69.34 120.82 76.2 120.82C85.3 120.82 92.58 114.94 92.58 107.66V103.04L73.82 104.72C67.66 105.28 64.58 107.8 64.58 112.56ZM135.689 113.4C141.569 113.4 146.329 118.02 146.329 123.9C146.329 129.78 141.569 134.4 135.689 134.4C129.809 134.4 125.049 129.78 125.049 123.9C125.049 118.02 129.809 113.4 135.689 113.4Z" fill="black"/>
<rect y="7" width="176" height="176" rx="30" fill="black"/>
<rect y="7" width="176" height="176" rx="30" fill="white"/>
<path d="M52.08 115.7C52.08 102.68 60.9 95.26 76.3 94.14L97.58 92.6V89.8C97.58 82.66 92.82 78.32 84.28 78.32C77.7 78.32 71.54 80.42 65.1 84.76L57.4 71.74C65.8 65.58 75.46 62.08 86.52 62.08C103.88 62.08 115.36 72.16 115.36 87.56V115.98C115.36 118.64 116.76 120.18 119.42 120.18H123.2V136H114.66C107.66 136 102.34 132.78 99.82 127.46C94.78 133.9 86.8 137.82 77.14 137.82C62.72 137.82 52.08 128.44 52.08 115.7ZM69.58 115.56C69.58 120.6 74.34 123.82 81.2 123.82C90.3 123.82 97.58 117.94 97.58 110.66V106.04L78.82 107.72C72.66 108.28 69.58 110.8 69.58 115.56ZM140.689 116.4C146.569 116.4 151.329 121.02 151.329 126.9C151.329 132.78 146.569 137.4 140.689 137.4C134.809 137.4 130.049 132.78 130.049 126.9C130.049 121.02 134.809 116.4 140.689 116.4Z" fill="black"/>
</svg>
